<svg width="512" height="512" viewBox="0 0 512 512" fill="none" xmlns="http://www.w3.org/2000/svg">
<path d="M136.9 146.6C136.9 146.6 123.4 121.7 101.9 123.6C80.4 125.5 68.6 137.9 66.7 159.4C63.6 193.3 93.3 222.8 93.3 222.8C93.3 222.8 77.2 221.7 61.1 230.1C44.9 238.4 30.7 262.1 39.3 294.6C44.7 314.7 67.3 322.8 67.3 322.8C67.3 322.8 54.4 332.5 53.6 348.6C52.8 362.6 61.4 374.4 69.7 379.8C78.9 385.7 94.7 386.5 94.7 386.5C94.7 386.5 96.6 408.3 118.9 418.2C137.2 426.3 158.4 415.6 163.5 411.5C163.5 411.5 174.6 427.7 206.3 429.6C237.5 431.5 253.9 414.8 253.9 414.8L262.2 420.2C262.2 420.2 284.3 430.7 308.2 411.1C325.2 397.1 319.8 376.6 319.8 376.6C319.8 376.6 339.4 378.8 355 364.5C369.3 351.4 365.8 332.2 365.8 332.2C365.8 332.2 378.2 334.6 392.4 321.2C407.2 307.2 401.6 288.7 401.6 288.7L420.7 282C420.7 282 462.6 266.1 454.3 209.6C445.9 153.1 391.3 151 391.3 151C391.3 151 405.6 112 374.1 89.4C342.6 66.8 300.9 83.2 300.9 83.2C300.9 83.2 283.5 56 238.3 56C193.2 56 169 90.5 169 90.5C169 90.5 150.7 75.7 124.9 89.2C99.1 102.6 102.3 129.5 102.3 129.5L136.9 146.6Z" fill="#FFAB19"/>
<path d="M129.2 136.9C129.2 136.9 119.5 141.2 119.5 153C119.5 164.8 127 169.7 136.2 169.7C145.3 169.7 151.8 162.1 151.8 153C151.8 143.9 146.4 135.3 146.4 135.3L129.2 136.9Z" fill="white"/>
<path d="M136.7 162.7C136.7 162.7 132.4 162.7 130.3 157.3C128.1 151.9 130.8 146.6 130.8 146.6C130.8 146.6 139.4 146.6 142.1 151.4C144.8 156.2 142.6 161.6 136.7 162.7Z" fill="#151717"/>
<path d="M121.1 140.7L129.7 127.8C129.7 127.8 131.9 123.5 136.7 124C141.5 124.6 142.1 127.3 142.1 127.3L144.2 138L121.1 140.7Z" fill="#151717"/>
<path d="M224 195.5C224 195.5 220 186.9 224.9 174C229.7 161.1 241 159.5 241 159.5C241 159.5 242.1 149.3 252.3 148.2C262.5 147.1 270 155.7 270 155.7C270 155.7 279.2 154.6 283.5 164.8C287.8 175 282.4 184.7 282.4 184.7C282.4 184.7 267.3 205.1 245.3 198.7C223.2 192.3 224 195.5 224 195.5Z" fill="white"/>
<path d="M255.5 159.5C255.5 159.5 251.2 159.5 249.1 164.9C246.9 170.3 249.6 175.6 249.6 175.6C249.6 175.6 258.2 175.6 260.9 170.4C263.6 165.2 261.4 160.6 255.5 159.5Z" fill="#151717"/>
<path d="M366.1 161.6C366.1 161.6 363.9 160 361.2 165.4C358.5 170.8 360.1 175.6 360.1 175.6C360.1 175.6 368.7 175.6 371.4 170.4C374.1 165.2 371.5 161.6 366.1 161.6Z" fill="#151717"/>
</svg>
